#!OML:ASF H:\Punching\Project 1\Capture day 1\Session 1\female.ASF
:FULLY-SPECIFIED
:DEGREES
1916
root 0.307496 15.0662 -0.222697 15.8433 -25.1866 -3.02461
lowerback -2.61824 2.08901 4.81359
upperback -6.86003 2.82886 0.843792
thorax -5.47228 1.16376 -1.86597
lowerneck -7.87882 7.75152 15.2778
upperneck 37.82 11.8389 -10.4131
head 16.6098 5.86646 -5.35007
rclavicle 1.51014e-014 -3.26007e-014
rhumerus 10.3748 22.6868 -66.6183
rradius 126.536
rwrist -10.0647
rhand -29.0317 8.30764
rfingers 7.12502
rthumb -2.38236 -21.6588
lclavicle 1.51014e-014 -3.26007e-014
lhumerus 12.6852 -8.03595 55.7966
lradius 133.927
lwrist 1.78359
lhand -22.0835 8.18492
lfingers 7.12502
lthumb 4.32817 38.1207
rfemur -8.07831 7.29219 9.72151
rtibia 39.4853
rfoot -11.8304 -23.521
rtoes -15.9229
lfemur -46.8184 8.81749 -18.0727
ltibia 45.6408
lfoot -13.3466 25.697
ltoes 20.7888
1917
root 0.2483 15.0568 -0.328949 16.3897 -26.4753 -3.36905
lowerback -2.71573 2.16272 4.8408
upperback -6.91029 2.9116 0.630123
thorax -5.45272 1.19603 -2.10101
lowerneck -7.67625 8.09224 15.6771
upperneck 37.3328 12.3855 -10.7675
head 16.4859 6.10597 -5.4599
rclavicle 9.61466e-015 -6.16232e-015
rhumerus 10.8459 23.1162 -67.0739
rradius 126.169
rwrist -9.91344
rhand -29.0619 8.24074
rfingers 7.12502
rthumb -2.4115 -21.7254
lclavicle 9.61466e-015 -6.16232e-015
lhumerus 12.7956 -7.09552 55.2238
lradius 133.753
lwrist 1.80807
lhand -22.5542 7.89419
lfingers 7.12502
lthumb 3.87362 37.8387
rfemur -8.17135 7.60739 9.96601
rtibia 38.1181
rfoot -13.3905 -23.8629
rtoes -18.6211
lfemur -47.3054 9.44551 -17.2887
ltibia 45.8068
lfoot -13.4876 26.3346
ltoes 21.3257
1918
root 0.188219 15.0479 -0.437652 16.8967 -27.726 -3.6966
lowerback -2.80064 2.21989 4.8718
upperback -6.9512 2.97191 0.393363
thorax -5.43011 1.21652 -2.36208
lowerneck -7.43799 8.43422 16.0992
upperneck 36.8268 12.9325 -11.1263
head 16.3545 6.35044 -5.57395
rclavicle -5.6013e-014 -4.05521e-014
rhumerus 11.2983 23.5527 -67.5705
rradius 125.777
rwrist -9.7496
rhand -29.1005 8.17442
rfingers 7.12502
rthumb -2.44882 -21.7913
lclavicle -5.6013e-014 -4.05521e-014
lhumerus 12.9027 -6.19075 54.6367
lradius 133.438
lwrist 1.64662
lhand -23.2726 7.25822
lfingers 7.12502
lthumb 3.17985 37.2143
rfemur -8.30709 7.68614 10.2306
rtibia 37.0214
rfoot -14.8891 -24.1036
rtoes -20.3445
lfemur -47.681 9.99482 -16.4786
ltibia 45.8987
lfoot -13.6301 27.0042
ltoes 21.8802
1919
root 0.127424 15.0397 -0.548576 17.3669 -28.9435 -4.01769
lowerback -2.86267 2.26144 4.91262
upperback -6.98295 3.01202 0.141356
thorax -5.41077 1.22607 -2.64504
lowerneck -7.16712 8.77749 16.5346
upperneck 36.2939 13.4816 -11.4901
head 16.2119 6.59909 -5.69007
rclavicle -8.97039e-014 -1.14425e-014
rhumerus 11.7349 23.9993 -68.0988
rradius 125.367
rwrist -9.58377
rhand -29.1316 8.10131
rfingers 7.12502
rthumb -2.47878 -21.864
lclavicle -8.97039e-014 -1.14425e-014
lhumerus 13.0093 -5.29647 54.0486
lradius 133.062
lwrist 1.40706
lhand -24.0576 6.49529
lfingers 7.12502
lthumb 2.42174 36.4613
rfemur -8.497 7.60028 10.5309
rtibia 36.1196
rfoot -16.2832 -24.2753
rtoes -21.3437
lfemur -47.9469 10.4691 -15.6297
ltibia 45.9224
lfoot -13.7581 27.7082
ltoes 22.4223
1920
root 0.0660238 15.032 -0.661229 17.7923 -30.1255 -4.31498
lowerback -2.90315 2.28438 4.9526
upperback -7.00677 3.02774 -0.127655
thorax -5.39627 1.22304 -2.94595
lowerneck -6.86644 9.1224 16.978
upperneck 35.7352 14.0333 -11.856
head 16.0594 6.85174 -5.80582
rclavicle 3.85559e-014 7.7526e-015
rhumerus 12.1483 24.4567 -68.6535
rradius 124.952
rwrist -9.4163
rhand -29.153 8.04493
rfingers 7.12502
rthumb -2.49946 -21.9202
lclavicle 3.85559e-014 7.7526e-015
lhumerus 13.141 -4.38339 53.4575
lradius 132.671
lwrist 1.19042
lhand -24.7656 5.79589
lfingers 7.12502
lthumb 1.738 35.7686
rfemur -8.73587 7.44707 10.8495
rtibia 35.3343
rfoot -17.6234 -24.3707
rtoes -21.841
lfemur -48.1141 10.867 -14.7594
ltibia 45.8906
lfoot -13.8617 28.4441
ltoes 22.9441
1921
root 0.00403828 15.0238 -0.775481 18.1708 -31.2657 -4.57949
lowerback -2.91755 2.28546 4.98264
upperback -7.03162 3.01513 -0.41129
thorax -5.39998 1.20537 -3.25786
lowerneck -6.53183 9.46576 17.4271
upperneck 35.1517 14.5842 -12.2244
head 15.8959 7.107 -5.92198
rclavicle 3.20665e-014 5.76476e-015
rhumerus 12.5183 24.9302 -69.2291
rradius 124.544
rwrist -9.23862
rhand -29.1554 8.01719
rfingers 7.12502
rthumb -2.50177 -21.9479
lclavicle 3.20665e-014 5.76476e-015
lhumerus 13.2841 -3.45527 52.8723
lradius 132.34
lwrist 1.07218
lhand -25.2621 5.34888
lfingers 7.12502
lthumb 1.25842 35.3249
rfemur -9.01272 7.31248 11.1729
rtibia 34.602
rfoot -18.9587 -24.3717
rtoes -22.0681
lfemur -48.2015 11.1955 -13.8801
ltibia 45.8229
lfoot -13.9381 29.1926
ltoes 23.4338
1922
root -0.058355 15.0142 -0.891347 18.4915 -32.3562 -4.79678
lowerback -2.90494 2.26012 4.98465
upperback -7.0478 2.9679 -0.706818
thorax -5.41401 1.17137 -3.56772
lowerneck -6.1924 9.80931 17.8715
upperneck 34.5428 15.1321 -12.5884
head 15.7259 7.3622 -6.0329
rclavicle 9.99949e-014 1.23246e-014
rhumerus 12.8736 25.41 -69.8072
rradius 124.148
rwrist -9.04849
rhand -29.162 8.05495
rfingers 7.12502
rthumb -2.5082 -21.9101
lclavicle 9.99949e-014 1.23246e-014
lhumerus 13.4615 -2.50266 52.2988
lradius 132.06
lwrist 1.05143
lhand -25.5492 5.11977
lfingers 7.12502
lthumb 0.981108 35.0973
rfemur -9.29758 7.23553 11.477
rtibia 33.891
rfoot -20.2618 -24.2607
rtoes -21.9463
lfemur -48.2235 11.4596 -13.0084
ltibia 45.7348
lfoot -13.974 29.935
ltoes 23.8744
1923
root -0.121071 15.0031 -1.00862 18.7537 -33.3952 -4.97582
lowerback -2.86479 2.20753 4.96378
upperback -7.05553 2.88504 -1.00877
thorax -5.43964 1.12033 -3.87273
lowerneck -5.83774 10.1483 18.3106
upperneck 33.9058 15.6705 -12.9465
head 15.5439 7.61509 -6.13944
rclavicle -5.95236e-014 -5.1684e-015
rhumerus 13.1998 25.9043 -70.3748
rradius 123.771
rwrist -8.83234
rhand -29.2074 8.18545
rfingers 7.12502
rthumb -2.55197 -21.779
lclavicle -5.95236e-014 -5.1684e-015
lhumerus 13.6615 -1.5342 51.7405
lradius 131.889
lwrist 1.19732
lhand -25.5415 5.2482
lfingers 7.12502
lthumb 0.988614 35.2257
rfemur -9.57153 7.24335 11.7613
rtibia 33.1976
rfoot -21.4491 -24.0445
rtoes -21.5656
lfemur -48.186 11.6721 -12.1358
ltibia 45.6393
lfoot -13.9713 30.6477
ltoes 24.3081
1924
root -0.183944 14.9918 -1.12707 18.9581 -34.3827 -5.12505
lowerback -2.78166 2.13107 4.91672
upperback -7.06232 2.77209 -1.30877
thorax -5.49408 1.0547 -4.16313
lowerneck -5.47469 10.4817 18.7476
upperneck 33.2545 16.1989 -13.3018
head 15.3594 7.86559 -6.24437
rclavicle -6.32508e-014 3.57812e-015
rhumerus 13.486 26.4057 -70.9287
rradius 123.425
rwrist -8.57567
rhand -29.275 8.34708
rfingers 7.12502
rthumb -2.61727 -21.6166
lclavicle -6.32508e-014 3.57812e-015
lhumerus 13.8395 -0.585013 51.2084
lradius 131.757
lwrist 1.3502
lhand -25.4654 5.44195
lfingers 7.12502
lthumb 1.06206 35.4191
rfemur -9.8245 7.35439 12.0272
rtibia 32.5414
rfoot -22.4669 -23.7681
rtoes -21.1199
lfemur -48.0892 11.8464 -11.2577
ltibia 45.5399
lfoot -13.9237 31.3123
ltoes 24.7719
1925
root -0.246648 14.9819 -1.24626 19.1211 -35.3228 -5.27034
lowerback -2.66644 2.03748 4.86194
upperback -7.0566 2.63754 -1.60046
thorax -5.55784 0.978804 -4.44161
lowerneck -5.13149 10.8122 19.1768
upperneck 32.5946 16.7159 -13.6466
head 15.1792 8.11184 -6.34245
rclavicle -1.963e-014 -1.74931e-014
rhumerus 13.751 26.9031 -71.4517
rradius 123.11
rwrist -8.26584
rhand -29.3825 8.52958
rfingers 7.12502
rthumb -2.72114 -21.4328
lclavicle -1.963e-014 -1.74931e-014
lhumerus 13.9941 0.33596 50.7148
lradius 131.694
lwrist 1.52687
lhand -25.3062 5.6903
lfingers 7.12502
lthumb 1.2158 35.6666
rfemur -10.0621 7.56387 12.2943
rtibia 31.9456
rfoot -23.284 -23.4769
rtoes -20.783
lfemur -47.936 11.994 -10.3509
ltibia 45.4391
lfoot -13.8212 31.9203
ltoes 25.2854
1926
root -0.308774 14.9744 -1.36558 19.2518 -36.2148 -5.4127
lowerback -2.51342 1.92193 4.79415
upperback -7.05926 2.47526 -1.87489
thorax -5.65789 0.888672 -4.69627
lowerneck -4.76932 11.1392 19.6157
upperneck 31.9262 17.2317 -14.0021
head 15.0017 8.36002 -6.44603
rclavicle -7.08667e-014 -2.14687e-014
rhumerus 13.9685 27.4172 -71.9513
rradius 122.835
rwrist -7.90803
rhand -29.5066 8.68188
rfingers 7.12502
rthumb -2.84095 -21.2789
lclavicle -7.08667e-014 -2.14687e-014
lhumerus 14.0544 1.20415 50.2606
lradius 131.714
lwrist 1.68772
lhand -25.1438 5.90621
lfingers 7.12502
lthumb 1.37271 35.8815
rfemur -10.2873 7.83602 12.5646
rtibia 31.4285
rfoot -23.9813 -23.1643
rtoes -20.4132
lfemur -47.7399 12.1365 -9.43154
ltibia 45.3388
lfoot -13.6679 32.4559
ltoes 25.8706
1927
root -0.369841 14.9696 -1.4846 19.3827 -37.0568 -5.58694
lowerback -2.33432 1.78722 4.7333
upperback -7.06473 2.28896 -2.11814
thorax -5.78129 0.786069 -4.92261
lowerneck -4.39819 11.4635 20.0544
upperneck 31.2405 17.7475 -14.3711
head 14.8245 8.60877 -6.55346
rclavicle 1.14835e-013 1.66979e-014
rhumerus 14.1634 27.947 -72.4124
rradius 122.597
rwrist -7.53114
rhand -29.6434 8.79676
rfingers 7.12502
rthumb -2.97312 -21.1623
lclavicle 1.14835e-013 1.66979e-014
lhumerus 14.02 2.02672 49.857
lradius 131.81
lwrist 1.82571
lhand -25.0034 6.06552
lfingers 7.12502
lthumb 1.50833 36.0399
rfemur -10.5226 8.10979 12.8752
rtibia 30.9945
rfoot -24.5672 -22.8436
rtoes -19.9847
lfemur -47.5264 12.3082 -8.48989
ltibia 45.2472
lfoot -13.4369 32.9139
ltoes 26.4707
1928
root -0.429552 14.9672 -1.60269 19.5392 -37.8553 -5.80785
lowerback -2.1405 1.64112 4.68566
upperback -7.07987 2.08886 -2.32432
thorax -5.92768 0.675787 -5.11736
lowerneck -4.01067 11.7802 20.4813
upperneck 30.5363 18.2575 -14.7507
head 14.6422 8.85525 -6.66304
rclavicle -1.98785e-015 7.15625e-015
rhumerus 14.3285 28.4765 -72.8335
rradius 122.427
rwrist -7.24145
rhand -29.6727 8.79564
rfingers 7.12502
rthumb -3.00133 -21.163
lclavicle -1.98785e-015 7.15625e-015
lhumerus 13.8886 2.78221 49.5123
lradius 131.937
lwrist 1.89608
lhand -24.9884 6.06144
lfingers 7.12502
lthumb 1.52281 36.0358
rfemur -10.7895 8.33908 13.2388
rtibia 30.6349
rfoot -25.0544 -22.5186
rtoes -19.4443
lfemur -47.3279 12.5403 -7.53563
ltibia 45.1768
lfoot -13.127 33.3072
ltoes 27.0892
1929
root -0.487605 14.9663 -1.7194 19.7537 -38.6105 -6.08766
lowerback -1.95519 1.49162 4.66099
upperback -7.11197 1.88495 -2.49115
thorax -6.0901 0.562374 -5.28283
lowerneck -3.60635 12.0856 20.8911
upperneck 29.8182 18.7578 -15.141
head 14.4551 9.09733 -6.7753
rclavicle -1.17034e-014 1.19271e-014
rhumerus 14.4493 28.9994 -73.2121
rradius 122.323
rwrist -7.04929
rhand -29.5842 8.69395
rfingers 7.12502
rthumb -2.9159 -21.2659
lclavicle -1.17034e-014 1.19271e-014
lhumerus 13.6873 3.47969 49.2355
lradius 132.129
lwrist 1.99974
lhand -24.9799 6.04339
lfingers 7.12502
lthumb 1.53103 36.0176
rfemur -11.1057 8.49231 13.6644
rtibia 30.3322
rfoot -25.4676 -22.1828
rtoes -18.7229
lfemur -47.1873 12.8677 -6.58723
ltibia 45.1421
lfoot -12.771 33.638
ltoes 27.7667
1930
root -0.543759 14.9657 -1.83415 20.0539 -39.3278 -6.45122
lowerback -1.79496 1.34608 4.66859
upperback -7.14908 1.68752 -2.61118
thorax -6.24468 0.451872 -5.41563
lowerneck -3.21987 12.3809 21.2678
upperneck 29.0794 19.2442 -15.5403
head 14.2643 9.33017 -6.8856
rclavicle -2.52705e-014 -1.59028e-015
rhumerus 14.5546 29.4986 -73.5305
rradius 122.284
rwrist -6.97511
rhand -29.3775 8.51059
rfingers 7.12502
rthumb -2.71624 -21.4519
lclavicle -2.52705e-014 -1.59028e-015
lhumerus 13.42 4.10238 49.0489
lradius 132.366
lwrist 2.04749
lhand -25.0487 5.99659
lfingers 7.12502
lthumb 1.46454 35.9713
rfemur -11.4736 8.55265 14.1692
rtibia 30.0678
rfoot -25.8147 -21.8238
rtoes -17.8118
lfemur -47.1256 13.3178 -5.64769
ltibia 45.1521
lfoot -12.3842 33.9227
ltoes 28.4981
